<svg width="1500" height="400" xmlns="http://www.w3.org/2000/svg">
    <!-- Created with Method Draw - http://github.com/duopixel/Method-Draw/ -->

    <g>
        <title>background</title>
        <rect fill="#fff" fill-opacity="0" id="canvas_background" height="402" width="1502" y="-1" x="-1"/>
        <g display="none" overflow="visible" y="0" x="0" height="100%" width="100%" id="canvasGrid">
            <rect fill="url(#gridpattern)" stroke-width="0" y="0" x="0" height="100%" width="100%"/>
        </g>
    </g>
    <g>
        <title>Layer 1</title>
        <g id="svg_23">
            <polygon id="svg_4" points="345.92919921875,135.43722534179688 347.475830078125,142.9512481689453 348.00146484375,145.50840759277344 348.14794921875,146.20407104492188 350.449951171875,145.99559020996094 353.347412109375,145.73390197753906 353.347412109375,145.15951538085938 353.347412109375,142.99806213378906 353.347412109375,140.85787963867188 353.347412109375,134.5564727783203 "/>
            <path id="svg_5" d="m341.221436,157.664444c-0.070068,-3.991028 -3.936035,-7.543793 -6.935547,-7.543793c-2.20166,0 -4.531006,1.063705 -6.067383,2.77626c-0.918701,1.019028 -1.952881,2.716705 -1.704102,5.022827c0.472656,4.305893 2.268066,6.424789 5.746582,6.767303c0.125,0 0.242432,-0.004257 0.361328,-0.004257c0.495605,0 1.008301,0.008514 1.508301,0.014893c2.214844,-0.144669 4.048584,-0.842453 5.291016,-2.108261c1.210205,-1.225388 1.831543,-2.929459 1.799805,-4.924973z"/>
            <path id="svg_6" d="m347.062988,175.062454c0.244629,-0.170197 0.50415,-0.321243 0.73999,-0.516968c10.220703,-8.622406 13.251709,-16.857635 9.49707,-25.788513c-0.338135,0.574402 -0.912598,0.995621 -1.618896,1.059433l-6.616455,0.597824c0.063721,0.214859 0.134033,0.429733 0.238281,0.640335c1.92749,3.905945 3.146484,8.777725 -6.818359,17.187393c-0.763672,0.644608 -3.331543,0.763733 -5.605957,0.763733c-0.710449,0 -1.386719,-0.010635 -1.978271,-0.021271c-0.27417,-0.004257 -0.546387,-0.004257 -0.823242,-0.008499c-0.257568,0.01062 -0.491211,0.061691 -0.755127,0.061691c-0.332031,0 -0.63623,-0.053192 -0.955078,-0.074463c-3.967773,0.014893 -7.803467,0.404205 -10.409668,2.967743c-0.657471,0.650986 -1.386719,1.616837 -1.871826,2.954987c0.165527,0.16806 0.346436,0.316971 0.508301,0.493546c4.769775,5.182388 4.467285,11.702911 4.282471,15.621613c-0.012939,0.255295 -0.106445,1.380676 -0.219238,2.640106c-0.01709,0.210632 -0.410889,2.533752 -0.535889,3.371964l22.939697,0l0,-21.950653l0.002197,0z"/>
            <path id="svg_7" d="m313.188477,197.017365c0.238281,0.002121 0.882813,0.002121 1.710205,0.002121c1.438232,0 3.357422,-0.002121 4.412354,-0.004242c-1.661621,0.002121 -5.442139,0.008499 -6.122559,0.002121z"/>
            <path id="svg_8" d="m320.0979,197.015244c0,0 -0.083252,0 -0.206299,0c0.123779,0 0.206299,0 0.206299,0z"/>
            <path id="svg_9" d="m319.891602,197.015244c-0.131836,0 -0.335938,0 -0.580566,0c0.250732,0 0.44873,0 0.580566,0z"/>
            <path id="svg_10" d="m313.188477,197.017365c-0.059814,0 -0.114746,0 -0.114746,-0.002121c-0.000488,0 0.046631,0 0.114746,0.002121z"/>
            <path fill="#666666" id="svg_11" d="m216.601318,306.370728l43.493164,0l103.560303,0l0,-0.702057l0,-104.375214l-147.053467,0l0,105.077271zm102.552246,-86.460281l31.226074,0l0,31.224091l-31.226074,0l0,-31.224091zm0,44.565079l31.226074,0l0,31.219818l-31.226074,0l0,-31.219818zm-42.397217,-44.565079l14.694092,0l16.532227,0l0,31.224091l-16.532227,0l-14.694092,0l0,-31.224091zm0,44.565079l14.694092,0l16.532227,0l0,31.219818l-16.532227,0l-14.694092,0l0,-31.219818zm-43.826904,-44.565079l27.167236,0l4.058838,0l0,31.224091l-4.058838,0l-27.167236,0l0,-31.224091zm0,44.565079l27.167236,0l4.058838,0l0,31.219818l-4.058838,0l-27.167236,0l0,-31.219818z"/>
            <path id="svg_12" d="m313.507324,197.017365c-0.129883,0 -0.248779,0 -0.316895,0c0.068115,0 0.180908,0 0.316895,0z"/>
            <path id="svg_13" d="m313.692139,197.019485c0.310791,0 0.721436,0 1.199951,0c1.442383,0 3.357178,-0.002121 4.414307,-0.004242c-1.412354,0.002121 -4.350586,0.006378 -5.614258,0.004242z"/>
            <path id="svg_14" d="m246.67041,154.922211c0.553223,-5.05687 -4.165527,-8.875565 -8.630615,-8.875565c-3.678467,0 -7.839844,3.948471 -7.918701,8.416046c-0.078369,4.780304 3.305908,8.090561 8.758545,8.090561c5.156982,-0.002136 7.309814,-3.191132 7.790771,-7.631042z"/>
            <path id="svg_15" d="m308.365479,161.836304c0.552979,-5.056854 -4.165527,-8.875565 -8.630859,-8.875565c-3.680908,0 -7.841553,3.948486 -7.918457,8.416046c-0.078369,4.780304 3.305908,8.090561 8.758301,8.090561c5.157227,-0.002121 7.310059,-3.191116 7.791016,-7.631042z"/>
            <path fill="#31475a" id="svg_16" d="m291.450439,124.391693l0,15.989639l-31.355957,0l0,-20.476364l-12.479248,0l0,-26.275681l-40.682617,0l0,26.275681l-14.172607,0l0,186.465759l19.565186,0l0,-105.079391l0,-4.276093l4.276123,0l6.552734,0l0,-0.506332c-1.852783,-0.585037 -3.486572,-1.395584 -4.874023,-2.427383c-3.610107,-2.678406 -5.601563,-6.654556 -5.609863,-11.194458c-0.023438,-12.721939 12.175049,-17.87027 16.883301,-18.782928c0.174561,-0.031921 0.42749,-0.07872 0.731689,-0.129776c-0.340088,-0.272308 -0.663818,-0.563766 -0.968018,-0.872238c-2.203857,-2.238037 -3.386963,-5.333435 -3.327148,-8.713898c0.112549,-6.603485 5.924561,-12.619812 12.189941,-12.619812c3.674072,0 7.362793,1.670029 9.869385,4.465439c2.310303,2.574173 3.378174,5.82486 3.016602,9.150009c-0.397705,3.633621 -1.689453,6.494995 -3.742188,8.447968c3.452881,0.619064 6.47168,1.68277 8.996826,3.199615c0.431641,0.259552 0.838379,0.555267 1.229492,0.874374l0,0.159561c1.019043,0.863724 1.912842,1.925308 2.695557,3.174103l-0.146973,-0.714813l0,-1.987015c0.129883,-0.540359 0.351074,-1.059448 0.683105,-1.516846c0.697998,-0.967957 1.767822,-1.595566 2.950439,-1.738098l2.742432,-0.323364l4.56543,-0.54248c0.165771,-0.021271 0.332031,-0.029785 0.502197,-0.029785c1.033691,0 2.040283,0.378677 2.822998,1.074341c0.908447,0.80629 1.431885,1.963608 1.431885,3.180481l0,1.236038l0,1.755112c0.008301,0 0.016602,-0.002136 0.025391,-0.002136c1.733887,0 3.333496,1.065842 3.971924,2.737991c0.46167,1.204102 0.876709,2.180588 1.242188,2.965622c2.102051,-2.231674 4.289307,-4.520767 7.193115,-5.752533c0.514648,-0.219131 1.129639,-0.425491 1.935791,-0.653122c0.568115,-0.161682 1.191406,-0.306351 1.831787,-0.442505c-0.42334,-0.319107 -0.859619,-0.621201 -1.231934,-0.999878c-2.080566,-2.112534 -3.146484,-4.944107 -3.088867,-8.194794c0.052979,-3.174118 1.552979,-6.250351 3.780273,-8.503281l0,0.099976c1.831787,-1.901901 4.182617,-3.229401 6.635742,-3.5634c0.353027,-0.042572 0.706299,-0.065948 1.061523,-0.065948c0.761475,0 1.524902,0.089355 2.278076,0.233994l0,-0.044662c2.782715,0.504196 5.433838,1.948715 7.359131,4.099533c2.16748,2.418854 3.174072,5.458939 2.833252,8.558578c-0.357178,3.250687 -1.429199,5.792953 -3.099121,7.624649c3.173828,0.387192 5.888184,1.216888 8.179932,2.49971c0.699463,-1.438126 1.580322,-2.546509 2.395264,-3.348541c1.780518,-1.752991 3.85498,-2.774155 6.067627,-3.376205c-1.470459,-1.765762 -2.433838,-4.131439 -2.759521,-7.122574c-0.327881,-3.023071 0.657471,-5.984421 2.767822,-8.343735c2.358887,-2.62735 5.818115,-4.199509 9.256348,-4.199509c5.656738,0 11.107178,5.709976 11.213623,11.74971c0.008301,0.404205 -0.053467,0.782883 -0.083008,1.172195c3.399414,-2.978363 -0.291504,-9.756317 -0.340332,-10.007339l-3.805908,-14.738739c-0.125732,-0.587158 0.008301,-1.195602 0.357178,-1.684906c0.349121,-0.485062 0.889404,-0.802032 1.48291,-0.872253l12.124023,-1.440262c0.617188,-0.068069 1.217041,0.119141 1.672119,0.525482c0.45752,0.406342 0.719238,0.987122 0.719238,1.597687l0,10.07756c1.217041,0.804169 2.233887,1.91893 2.910156,3.293243c5.47168,11.102966 2.463379,21.454971 -9.194824,31.624008l0,19.870041l12.179688,0l4.282471,0l0,4.278244l0,105.08577l19.289551,0l0,-198.83667l-95.789307,16.857635z"/>
            <path id="svg_17" d="m239.409424,190.175598l1.376221,-9.126602l-6.420654,-0.20636l0.14917,2.778397c1.878662,1.221146 3.12915,3.327271 3.12915,5.731247c0,0.242523 -0.033691,0.478668 -0.057129,0.714813l1.823242,0.108505z"/>
            <path id="svg_18" d="m281.927979,195.796234c-0.523438,0.065948 -1.050781,0.099976 -1.563965,0.099976c-3.678223,0 -8.973389,-1.712555 -13.32373,-9.866943c-0.27832,-0.519089 -0.4104,-1.084976 -0.457031,-1.655136c-0.053467,0.002136 -0.110596,0.006393 -0.162109,0.006393c-0.993652,0 -1.92749,-0.348892 -2.66748,-0.942444c0.233643,2.578415 0.310547,5.405762 0.199951,8.52243c-0.070068,1.942322 -0.819092,3.68042 -1.974365,5.056854l25.080322,0l-0.04248,-3.106033c-1.502197,0.950958 -3.174561,1.650879 -5.089111,1.884903z"/>
            <path id="svg_19" d="m259.654053,185.797379c-0.197998,-3.637878 -0.770264,-7.543808 -2.104004,-10.596649l0,0l0,0c-0.199951,-0.459518 -0.417236,-0.895645 -0.655518,-1.312622c-0.025391,-0.044678 -0.046631,-0.087219 -0.074219,-0.131897c-0.212402,-0.361664 -0.438477,-0.702042 -0.678955,-1.023285c-0.052979,-0.072327 -0.10376,-0.148911 -0.161377,-0.219116c-0.225586,-0.28508 -0.470215,-0.546753 -0.723145,-0.793533c-0.078857,-0.074463 -0.144775,-0.157425 -0.223877,-0.227631c-0.327148,-0.295715 -0.67627,-0.565887 -1.052734,-0.791397c-4.250732,-2.555023 -9.773193,-3.233673 -14.437012,-3.233673c-4.713867,0 -8.551514,0.691406 -9.319824,0.840332c-0.555176,0.10849 -13.432373,3.191116 -13.413086,14.572784c0.006104,3.150696 1.378418,5.912094 3.880371,7.767197c1.704102,1.263672 3.935303,2.06572 6.603516,2.448654l0,0.114868c1.101563,0.148926 2.25708,0.24678 3.51001,0.24678c2.080566,0 3.780518,-1.553009 4.050537,-3.561279l-0.083008,-1.546631c-0.452881,-1.778519 -2.048584,-3.101776 -3.967529,-3.101776c-1.378662,0 -5.884277,-0.159561 -5.941895,-2.212509c-0.065918,-2.555038 1.748779,-5.712097 2.991211,-5.782318c0,0 0.344727,4.552673 0.365479,5.448318c0.119629,0.029785 0.236328,0.042542 0.362061,0.042542c0.025635,0 0.052979,-0.006378 0.083252,-0.006378c0.061279,-0.002136 0.131836,-0.008514 0.199951,-0.017029c0.112549,-0.012756 0.223389,-0.025528 0.350586,-0.046799c0.151123,-0.025528 0.321533,-0.04892 0.50415,-0.076584c0.087402,-0.012756 0.16626,-0.023407 0.257813,-0.036163c0.244629,-0.027664 0.510498,-0.046799 0.827393,-0.046799c0.300049,0 0.580566,0.051056 0.87207,0.08934c-0.091553,-1.310486 -0.123291,-3.097504 -0.123291,-3.097504c-0.02124,-0.380814 0.123291,-0.755249 0.38916,-1.029678c0.131836,-0.131897 0.282959,-0.234009 0.445068,-0.306351c0.050781,-0.023392 0.110596,-0.021271 0.165771,-0.036163c0.131836,-0.038284 0.265869,-0.07872 0.410645,-0.068069l9.447754,0.304214c0.393799,0.010635 0.755127,0.189331 1.008057,0.489304c0.253662,0.299973 0.360107,0.693542 0.30249,1.080734l-1.795654,11.883728c-0.099609,0.672272 -0.676758,1.163696 -1.35083,1.163696c-0.029785,0 -0.052979,0 -0.085205,-0.002121l-3.599365,-0.523346c-0.789551,1.525345 -2.146729,2.714569 -3.780762,3.306l15.164063,0l0,-18.704224c0.513184,0.20636 1.031982,0.406326 1.476807,0.674393c1.051025,1.148804 1.957031,7.771439 1.744629,13.781387c-0.079102,2.265686 1.690918,4.165482 3.95459,4.246307c0.048828,0.002136 0.100098,0.002136 0.148926,0.002136c0.336182,0 0.663818,-0.053192 0.976563,-0.131912c0.040527,-0.008499 0.074219,-0.021255 0.112549,-0.034027c0.30249,-0.082977 0.585449,-0.199982 0.855469,-0.346771l0,0c0,0 0,0 0.00415,0c0.602051,-0.329758 1.112549,-0.797775 1.485107,-1.374298c0.023193,-0.036179 0.044678,-0.074463 0.063721,-0.112762c0.140381,-0.234024 0.25708,-0.482925 0.351074,-0.746719c0.027588,-0.076599 0.055176,-0.148926 0.078613,-0.223389c0.089355,-0.31485 0.155273,-0.640335 0.168213,-0.980728c0.02124,-0.519089 0.031738,-1.076477 0.040527,-1.650879c0,-0.125504 0.001953,-0.248901 0.001953,-0.376541c0.012451,-1.238159 -0.012939,-2.574188 -0.087158,-3.957001c0.00415,-0.019135 0.00415,-0.027649 0.00415,-0.036163z"/>
            <path id="svg_20" d="m317.417236,178.249313c-0.612793,-0.661621 -1.302002,-1.242416 -2.067627,-1.752991c-2.506104,-1.680649 -5.83374,-2.582687 -10.105225,-2.731598c-0.789551,-0.029785 -1.554932,-0.042542 -2.310791,-0.042542c-0.514648,0 -1.016357,0.010635 -1.508301,0.021255c-4.303711,0.104263 -7.86499,0.642487 -10.113525,1.27858c-0.551025,0.155319 -1.046631,0.314865 -1.431885,0.476547c-2.125488,0.902023 -3.942139,2.825195 -5.862793,4.865402c-1.108398,1.174332 -2.96167,3.14006 -3.748535,3.423004c0.014648,-0.074463 -1.706299,-0.676529 -4.461426,-7.899078l0,5.733368c0,1.106262 -0.842529,2.031677 -1.948975,2.131668l-3.06958,0.276566c2.010742,3.769775 5.091064,7.614014 9.569336,7.614014c0.335938,0 0.67627,-0.021255 1.029297,-0.065933c3.266113,-0.399963 5.859375,-3.146454 8.365479,-5.805725c0.393066,-0.414841 0.893311,-0.942444 1.390869,-1.44664l0.16626,12.696411l10.113525,0l0,-0.002136l9.149902,-0.002121l0.114746,-14.128174c0.376709,0.221252 0.708496,0.457397 0.959961,0.729721c1.33374,1.448761 1.90625,4.078247 1.780518,6.705597c-0.034424,0.668015 -0.349121,6.092911 -0.357422,6.692856c0,0 0.048828,0 0.114746,0.002121c0.068115,0 0.189697,0 0.316895,0c0.053467,0 0.121582,0 0.1875,0c1.263672,0.002136 4.201416,0 5.618164,-0.002121c0.244629,0 0.449219,0 0.581299,0c0.123047,0 0.206055,0 0.206055,0c0.010498,-0.261673 0.072266,-1.04245 0.151123,-1.991257c0.140381,-1.704056 0.336182,-3.880417 0.355469,-4.239944c0.019043,-0.39357 0.035645,-0.808426 0.050781,-1.229645c0.125732,-3.484711 -0.031738,-7.824631 -3.210449,-11.275299c-0.00415,-0.012756 -0.014404,-0.021271 -0.025391,-0.031906z"/>
            <polygon id="svg_21" points="266.085205078125,178.50247192382812 266.421142578125,180.12782287597656 266.69580078125,180.102294921875 268.91064453125,179.90231323242188 271.533447265625,179.66404724121094 271.533447265625,172.0159912109375 271.533447265625,169.8758087158203 271.533447265625,168.64190673828125 266.97216796875,169.1844024658203 264.229736328125,169.5077667236328 264.65576171875,171.573486328125 265.544921875,175.87937927246094 "/>
            <path id="svg_22" d="m313.692139,197.019485c-0.065918,0 -0.131836,0 -0.186768,0c0.05957,0 0.118896,0 0.186768,0z"/>
            <text stroke="null" transform="matrix(1.01556707182479,0,0,1,-2.9686319459891752,0) " opacity="0.8" font-style="normal" font-weight="bold" xml:space="preserve" text-anchor="left" font-family="Helvetica, Arial, sans-serif" font-size="100" id="svg_24" y="244.5" x="399.765696" stroke-opacity="null" stroke-width="0" fill="#31475a">HappyCorner</text>
        </g>
    </g>
</svg>